# xmcd
#
# Track frame offsets:
#	150
#	16302
#	30327
#	50544
#	69719
#	85620
#	106033
#	119773
#	139696
#	157930
#	170961
#	188659
#
# Disc length: 2741 seconds
#
# Revision: 1
# Processed by: cddbd v1.5.2PL0 Copyright (c) Steve Scherf et al.
# Submitted via: audiograbber 1.83.01
#
DISCID=970ab30c
DTITLE=Jane Saunders - Poetic Justice
DYEAR=1999
DGENRE=Country
TTITLE0=Learning How To Love You
TTITLE1=Ballad Of Easy Rider
TTITLE2=Poetic Justice
TTITLE3=Take It Like A Man
TTITLE4=Outbound Plane
TTITLE5=If I Should Fall Behind
TTITLE6=Days Like These
TTITLE7=Cold North Wind
TTITLE8=Persuasion
TTITLE9=I Found Love
TTITLE10=Threw It All Away
TTITLE11=Strong Hand Of Love
EXTD=
EXTT0=
EXTT1=
EXTT2=
EXTT3=
EXTT4=
EXTT5=
EXTT6=
EXTT7=
EXTT8=
EXTT9=
EXTT10=
EXTT11=
PLAYORDER=
